G04 #@! TF.GenerationSoftware,KiCad,Pcbnew,(5.1.6-0-10_14)*
G04 #@! TF.CreationDate,2021-07-16T23:08:20+02:00*
G04 #@! TF.ProjectId,eurorack-busboard,6575726f-7261-4636-9b2d-627573626f61,rev?*
G04 #@! TF.SameCoordinates,Original*
G04 #@! TF.FileFunction,Legend,Top*
G04 #@! TF.FilePolarity,Positive*
%FSLAX46Y46*%
G04 Gerber Fmt 4.6, Leading zero omitted, Abs format (unit mm)*
G04 Created by KiCad (PCBNEW (5.1.6-0-10_14)) date 2021-07-16 23:08:20*
%MOMM*%
%LPD*%
G01*
G04 APERTURE LIST*
%ADD10C,0.150000*%
%ADD11C,0.120000*%
%ADD12C,2.300000*%
%ADD13C,1.800000*%
G04 APERTURE END LIST*
D10*
X40982857Y-67238571D02*
X41316190Y-67238571D01*
X41459047Y-67762380D02*
X40982857Y-67762380D01*
X40982857Y-66762380D01*
X41459047Y-66762380D01*
X42316190Y-67095714D02*
X42316190Y-67762380D01*
X41887619Y-67095714D02*
X41887619Y-67619523D01*
X41935238Y-67714761D01*
X42030476Y-67762380D01*
X42173333Y-67762380D01*
X42268571Y-67714761D01*
X42316190Y-67667142D01*
X42792380Y-67762380D02*
X42792380Y-67095714D01*
X42792380Y-67286190D02*
X42840000Y-67190952D01*
X42887619Y-67143333D01*
X42982857Y-67095714D01*
X43078095Y-67095714D01*
X43554285Y-67762380D02*
X43459047Y-67714761D01*
X43411428Y-67667142D01*
X43363809Y-67571904D01*
X43363809Y-67286190D01*
X43411428Y-67190952D01*
X43459047Y-67143333D01*
X43554285Y-67095714D01*
X43697142Y-67095714D01*
X43792380Y-67143333D01*
X43840000Y-67190952D01*
X43887619Y-67286190D01*
X43887619Y-67571904D01*
X43840000Y-67667142D01*
X43792380Y-67714761D01*
X43697142Y-67762380D01*
X43554285Y-67762380D01*
X44316190Y-67762380D02*
X44316190Y-67095714D01*
X44316190Y-67286190D02*
X44363809Y-67190952D01*
X44411428Y-67143333D01*
X44506666Y-67095714D01*
X44601904Y-67095714D01*
X45363809Y-67762380D02*
X45363809Y-67238571D01*
X45316190Y-67143333D01*
X45220952Y-67095714D01*
X45030476Y-67095714D01*
X44935238Y-67143333D01*
X45363809Y-67714761D02*
X45268571Y-67762380D01*
X45030476Y-67762380D01*
X44935238Y-67714761D01*
X44887619Y-67619523D01*
X44887619Y-67524285D01*
X44935238Y-67429047D01*
X45030476Y-67381428D01*
X45268571Y-67381428D01*
X45363809Y-67333809D01*
X46268571Y-67714761D02*
X46173333Y-67762380D01*
X45982857Y-67762380D01*
X45887619Y-67714761D01*
X45840000Y-67667142D01*
X45792380Y-67571904D01*
X45792380Y-67286190D01*
X45840000Y-67190952D01*
X45887619Y-67143333D01*
X45982857Y-67095714D01*
X46173333Y-67095714D01*
X46268571Y-67143333D01*
X46697142Y-67762380D02*
X46697142Y-66762380D01*
X46792380Y-67381428D02*
X47078095Y-67762380D01*
X47078095Y-67095714D02*
X46697142Y-67476666D01*
X48268571Y-67762380D02*
X48268571Y-66762380D01*
X48268571Y-67143333D02*
X48363809Y-67095714D01*
X48554285Y-67095714D01*
X48649523Y-67143333D01*
X48697142Y-67190952D01*
X48744761Y-67286190D01*
X48744761Y-67571904D01*
X48697142Y-67667142D01*
X48649523Y-67714761D01*
X48554285Y-67762380D01*
X48363809Y-67762380D01*
X48268571Y-67714761D01*
X49601904Y-67095714D02*
X49601904Y-67762380D01*
X49173333Y-67095714D02*
X49173333Y-67619523D01*
X49220952Y-67714761D01*
X49316190Y-67762380D01*
X49459047Y-67762380D01*
X49554285Y-67714761D01*
X49601904Y-67667142D01*
X50030476Y-67714761D02*
X50125714Y-67762380D01*
X50316190Y-67762380D01*
X50411428Y-67714761D01*
X50459047Y-67619523D01*
X50459047Y-67571904D01*
X50411428Y-67476666D01*
X50316190Y-67429047D01*
X50173333Y-67429047D01*
X50078095Y-67381428D01*
X50030476Y-67286190D01*
X50030476Y-67238571D01*
X50078095Y-67143333D01*
X50173333Y-67095714D01*
X50316190Y-67095714D01*
X50411428Y-67143333D01*
X50887619Y-67762380D02*
X50887619Y-66762380D01*
X50887619Y-67143333D02*
X50982857Y-67095714D01*
X51173333Y-67095714D01*
X51268571Y-67143333D01*
X51316190Y-67190952D01*
X51363809Y-67286190D01*
X51363809Y-67571904D01*
X51316190Y-67667142D01*
X51268571Y-67714761D01*
X51173333Y-67762380D01*
X50982857Y-67762380D01*
X50887619Y-67714761D01*
X51935238Y-67762380D02*
X51840000Y-67714761D01*
X51792380Y-67667142D01*
X51744761Y-67571904D01*
X51744761Y-67286190D01*
X51792380Y-67190952D01*
X51840000Y-67143333D01*
X51935238Y-67095714D01*
X52078095Y-67095714D01*
X52173333Y-67143333D01*
X52220952Y-67190952D01*
X52268571Y-67286190D01*
X52268571Y-67571904D01*
X52220952Y-67667142D01*
X52173333Y-67714761D01*
X52078095Y-67762380D01*
X51935238Y-67762380D01*
X53125714Y-67762380D02*
X53125714Y-67238571D01*
X53078095Y-67143333D01*
X52982857Y-67095714D01*
X52792380Y-67095714D01*
X52697142Y-67143333D01*
X53125714Y-67714761D02*
X53030476Y-67762380D01*
X52792380Y-67762380D01*
X52697142Y-67714761D01*
X52649523Y-67619523D01*
X52649523Y-67524285D01*
X52697142Y-67429047D01*
X52792380Y-67381428D01*
X53030476Y-67381428D01*
X53125714Y-67333809D01*
X53601904Y-67762380D02*
X53601904Y-67095714D01*
X53601904Y-67286190D02*
X53649523Y-67190952D01*
X53697142Y-67143333D01*
X53792380Y-67095714D01*
X53887619Y-67095714D01*
X54649523Y-67762380D02*
X54649523Y-66762380D01*
X54649523Y-67714761D02*
X54554285Y-67762380D01*
X54363809Y-67762380D01*
X54268571Y-67714761D01*
X54220952Y-67667142D01*
X54173333Y-67571904D01*
X54173333Y-67286190D01*
X54220952Y-67190952D01*
X54268571Y-67143333D01*
X54363809Y-67095714D01*
X54554285Y-67095714D01*
X54649523Y-67143333D01*
X55887619Y-67762380D02*
X55887619Y-66762380D01*
X55887619Y-67143333D02*
X55982857Y-67095714D01*
X56173333Y-67095714D01*
X56268571Y-67143333D01*
X56316190Y-67190952D01*
X56363809Y-67286190D01*
X56363809Y-67571904D01*
X56316190Y-67667142D01*
X56268571Y-67714761D01*
X56173333Y-67762380D01*
X55982857Y-67762380D01*
X55887619Y-67714761D01*
X56697142Y-67095714D02*
X56935238Y-67762380D01*
X57173333Y-67095714D02*
X56935238Y-67762380D01*
X56840000Y-68000476D01*
X56792380Y-68048095D01*
X56697142Y-68095714D01*
X58316190Y-67762380D02*
X58316190Y-66762380D01*
X58554285Y-66762380D01*
X58697142Y-66810000D01*
X58792380Y-66905238D01*
X58840000Y-67000476D01*
X58887619Y-67190952D01*
X58887619Y-67333809D01*
X58840000Y-67524285D01*
X58792380Y-67619523D01*
X58697142Y-67714761D01*
X58554285Y-67762380D01*
X58316190Y-67762380D01*
X59744761Y-67762380D02*
X59744761Y-67238571D01*
X59697142Y-67143333D01*
X59601904Y-67095714D01*
X59411428Y-67095714D01*
X59316190Y-67143333D01*
X59744761Y-67714761D02*
X59649523Y-67762380D01*
X59411428Y-67762380D01*
X59316190Y-67714761D01*
X59268571Y-67619523D01*
X59268571Y-67524285D01*
X59316190Y-67429047D01*
X59411428Y-67381428D01*
X59649523Y-67381428D01*
X59744761Y-67333809D01*
X60649523Y-67762380D02*
X60649523Y-67238571D01*
X60601904Y-67143333D01*
X60506666Y-67095714D01*
X60316190Y-67095714D01*
X60220952Y-67143333D01*
X60649523Y-67714761D02*
X60554285Y-67762380D01*
X60316190Y-67762380D01*
X60220952Y-67714761D01*
X60173333Y-67619523D01*
X60173333Y-67524285D01*
X60220952Y-67429047D01*
X60316190Y-67381428D01*
X60554285Y-67381428D01*
X60649523Y-67333809D01*
X61125714Y-67095714D02*
X61125714Y-67762380D01*
X61125714Y-67190952D02*
X61173333Y-67143333D01*
X61268571Y-67095714D01*
X61411428Y-67095714D01*
X61506666Y-67143333D01*
X61554285Y-67238571D01*
X61554285Y-67762380D01*
X62792380Y-67762380D02*
X62792380Y-66762380D01*
X63363809Y-67762380D02*
X62935238Y-67190952D01*
X63363809Y-66762380D02*
X62792380Y-67333809D01*
X63935238Y-67762380D02*
X63839999Y-67714761D01*
X63792380Y-67619523D01*
X63792380Y-66762380D01*
X64316190Y-67762380D02*
X64316190Y-67095714D01*
X64316190Y-66762380D02*
X64268571Y-66810000D01*
X64316190Y-66857619D01*
X64363809Y-66810000D01*
X64316190Y-66762380D01*
X64316190Y-66857619D01*
X64792380Y-67095714D02*
X64792380Y-67952857D01*
X64744761Y-68048095D01*
X64649523Y-68095714D01*
X64601904Y-68095714D01*
X64792380Y-66762380D02*
X64744761Y-66810000D01*
X64792380Y-66857619D01*
X64839999Y-66810000D01*
X64792380Y-66762380D01*
X64792380Y-66857619D01*
X65268571Y-67095714D02*
X65268571Y-67762380D01*
X65268571Y-67190952D02*
X65316190Y-67143333D01*
X65411428Y-67095714D01*
X65554285Y-67095714D01*
X65649523Y-67143333D01*
X65697142Y-67238571D01*
X65697142Y-67762380D01*
X1778095Y-16010000D02*
X1682857Y-15962380D01*
X1540000Y-15962380D01*
X1397142Y-16010000D01*
X1301904Y-16105238D01*
X1254285Y-16200476D01*
X1206666Y-16390952D01*
X1206666Y-16533809D01*
X1254285Y-16724285D01*
X1301904Y-16819523D01*
X1397142Y-16914761D01*
X1540000Y-16962380D01*
X1635238Y-16962380D01*
X1778095Y-16914761D01*
X1825714Y-16867142D01*
X1825714Y-16533809D01*
X1635238Y-16533809D01*
X2254285Y-16962380D02*
X2254285Y-15962380D01*
X2825714Y-16962380D01*
X2825714Y-15962380D01*
X3301904Y-16962380D02*
X3301904Y-15962380D01*
X3540000Y-15962380D01*
X3682857Y-16010000D01*
X3778095Y-16105238D01*
X3825714Y-16200476D01*
X3873333Y-16390952D01*
X3873333Y-16533809D01*
X3825714Y-16724285D01*
X3778095Y-16819523D01*
X3682857Y-16914761D01*
X3540000Y-16962380D01*
X3301904Y-16962380D01*
X1968571Y-19502380D02*
X1397142Y-19502380D01*
X1682857Y-19502380D02*
X1682857Y-18502380D01*
X1587619Y-18645238D01*
X1492380Y-18740476D01*
X1397142Y-18788095D01*
X2349523Y-18597619D02*
X2397142Y-18550000D01*
X2492380Y-18502380D01*
X2730476Y-18502380D01*
X2825714Y-18550000D01*
X2873333Y-18597619D01*
X2920952Y-18692857D01*
X2920952Y-18788095D01*
X2873333Y-18930952D01*
X2301904Y-19502380D01*
X2920952Y-19502380D01*
X3254285Y-18835714D02*
X3492380Y-19502380D01*
X3730476Y-18835714D01*
X2397142Y-21042380D02*
X1920952Y-21042380D01*
X1873333Y-21518571D01*
X1920952Y-21470952D01*
X2016190Y-21423333D01*
X2254285Y-21423333D01*
X2349523Y-21470952D01*
X2397142Y-21518571D01*
X2444761Y-21613809D01*
X2444761Y-21851904D01*
X2397142Y-21947142D01*
X2349523Y-21994761D01*
X2254285Y-22042380D01*
X2016190Y-22042380D01*
X1920952Y-21994761D01*
X1873333Y-21947142D01*
X2778095Y-21375714D02*
X3016190Y-22042380D01*
X3254285Y-21375714D01*
X1778095Y-10930000D02*
X1682857Y-10882380D01*
X1540000Y-10882380D01*
X1397142Y-10930000D01*
X1301904Y-11025238D01*
X1254285Y-11120476D01*
X1206666Y-11310952D01*
X1206666Y-11453809D01*
X1254285Y-11644285D01*
X1301904Y-11739523D01*
X1397142Y-11834761D01*
X1540000Y-11882380D01*
X1635238Y-11882380D01*
X1778095Y-11834761D01*
X1825714Y-11787142D01*
X1825714Y-11453809D01*
X1635238Y-11453809D01*
X2254285Y-11882380D02*
X2254285Y-10882380D01*
X2825714Y-11882380D01*
X2825714Y-10882380D01*
X3301904Y-11882380D02*
X3301904Y-10882380D01*
X3540000Y-10882380D01*
X3682857Y-10930000D01*
X3778095Y-11025238D01*
X3825714Y-11120476D01*
X3873333Y-11310952D01*
X3873333Y-11453809D01*
X3825714Y-11644285D01*
X3778095Y-11739523D01*
X3682857Y-11834761D01*
X3540000Y-11882380D01*
X3301904Y-11882380D01*
X825714Y-8961428D02*
X1587619Y-8961428D01*
X2587619Y-9342380D02*
X2016190Y-9342380D01*
X2301904Y-9342380D02*
X2301904Y-8342380D01*
X2206666Y-8485238D01*
X2111428Y-8580476D01*
X2016190Y-8628095D01*
X2968571Y-8437619D02*
X3016190Y-8390000D01*
X3111428Y-8342380D01*
X3349523Y-8342380D01*
X3444761Y-8390000D01*
X3492380Y-8437619D01*
X3540000Y-8532857D01*
X3540000Y-8628095D01*
X3492380Y-8770952D01*
X2920952Y-9342380D01*
X3540000Y-9342380D01*
X3873333Y-8675714D02*
X4111428Y-9342380D01*
X4349523Y-8675714D01*
X1778095Y-13470000D02*
X1682857Y-13422380D01*
X1540000Y-13422380D01*
X1397142Y-13470000D01*
X1301904Y-13565238D01*
X1254285Y-13660476D01*
X1206666Y-13850952D01*
X1206666Y-13993809D01*
X1254285Y-14184285D01*
X1301904Y-14279523D01*
X1397142Y-14374761D01*
X1540000Y-14422380D01*
X1635238Y-14422380D01*
X1778095Y-14374761D01*
X1825714Y-14327142D01*
X1825714Y-13993809D01*
X1635238Y-13993809D01*
X2254285Y-14422380D02*
X2254285Y-13422380D01*
X2825714Y-14422380D01*
X2825714Y-13422380D01*
X3301904Y-14422380D02*
X3301904Y-13422380D01*
X3540000Y-13422380D01*
X3682857Y-13470000D01*
X3778095Y-13565238D01*
X3825714Y-13660476D01*
X3873333Y-13850952D01*
X3873333Y-13993809D01*
X3825714Y-14184285D01*
X3778095Y-14279523D01*
X3682857Y-14374761D01*
X3540000Y-14422380D01*
X3301904Y-14422380D01*
X2420952Y-24487142D02*
X2373333Y-24534761D01*
X2230476Y-24582380D01*
X2135238Y-24582380D01*
X1992380Y-24534761D01*
X1897142Y-24439523D01*
X1849523Y-24344285D01*
X1801904Y-24153809D01*
X1801904Y-24010952D01*
X1849523Y-23820476D01*
X1897142Y-23725238D01*
X1992380Y-23630000D01*
X2135238Y-23582380D01*
X2230476Y-23582380D01*
X2373333Y-23630000D01*
X2420952Y-23677619D01*
X2706666Y-23582380D02*
X3040000Y-24582380D01*
X3373333Y-23582380D01*
X1540000Y-26170000D02*
X1444761Y-26122380D01*
X1301904Y-26122380D01*
X1159047Y-26170000D01*
X1063809Y-26265238D01*
X1016190Y-26360476D01*
X968571Y-26550952D01*
X968571Y-26693809D01*
X1016190Y-26884285D01*
X1063809Y-26979523D01*
X1159047Y-27074761D01*
X1301904Y-27122380D01*
X1397142Y-27122380D01*
X1540000Y-27074761D01*
X1587619Y-27027142D01*
X1587619Y-26693809D01*
X1397142Y-26693809D01*
X1968571Y-26836666D02*
X2444761Y-26836666D01*
X1873333Y-27122380D02*
X2206666Y-26122380D01*
X2540000Y-27122380D01*
X2730476Y-26122380D02*
X3301904Y-26122380D01*
X3016190Y-27122380D02*
X3016190Y-26122380D01*
X3635238Y-26598571D02*
X3968571Y-26598571D01*
X4111428Y-27122380D02*
X3635238Y-27122380D01*
X3635238Y-26122380D01*
X4111428Y-26122380D01*
X1540000Y-59190000D02*
X1444761Y-59142380D01*
X1301904Y-59142380D01*
X1159047Y-59190000D01*
X1063809Y-59285238D01*
X1016190Y-59380476D01*
X968571Y-59570952D01*
X968571Y-59713809D01*
X1016190Y-59904285D01*
X1063809Y-59999523D01*
X1159047Y-60094761D01*
X1301904Y-60142380D01*
X1397142Y-60142380D01*
X1540000Y-60094761D01*
X1587619Y-60047142D01*
X1587619Y-59713809D01*
X1397142Y-59713809D01*
X1968571Y-59856666D02*
X2444761Y-59856666D01*
X1873333Y-60142380D02*
X2206666Y-59142380D01*
X2540000Y-60142380D01*
X2730476Y-59142380D02*
X3301904Y-59142380D01*
X3016190Y-60142380D02*
X3016190Y-59142380D01*
X3635238Y-59618571D02*
X3968571Y-59618571D01*
X4111428Y-60142380D02*
X3635238Y-60142380D01*
X3635238Y-59142380D01*
X4111428Y-59142380D01*
X2420952Y-57507142D02*
X2373333Y-57554761D01*
X2230476Y-57602380D01*
X2135238Y-57602380D01*
X1992380Y-57554761D01*
X1897142Y-57459523D01*
X1849523Y-57364285D01*
X1801904Y-57173809D01*
X1801904Y-57030952D01*
X1849523Y-56840476D01*
X1897142Y-56745238D01*
X1992380Y-56650000D01*
X2135238Y-56602380D01*
X2230476Y-56602380D01*
X2373333Y-56650000D01*
X2420952Y-56697619D01*
X2706666Y-56602380D02*
X3040000Y-57602380D01*
X3373333Y-56602380D01*
X2397142Y-54062380D02*
X1920952Y-54062380D01*
X1873333Y-54538571D01*
X1920952Y-54490952D01*
X2016190Y-54443333D01*
X2254285Y-54443333D01*
X2349523Y-54490952D01*
X2397142Y-54538571D01*
X2444761Y-54633809D01*
X2444761Y-54871904D01*
X2397142Y-54967142D01*
X2349523Y-55014761D01*
X2254285Y-55062380D01*
X2016190Y-55062380D01*
X1920952Y-55014761D01*
X1873333Y-54967142D01*
X2778095Y-54395714D02*
X3016190Y-55062380D01*
X3254285Y-54395714D01*
X1968571Y-52522380D02*
X1397142Y-52522380D01*
X1682857Y-52522380D02*
X1682857Y-51522380D01*
X1587619Y-51665238D01*
X1492380Y-51760476D01*
X1397142Y-51808095D01*
X2349523Y-51617619D02*
X2397142Y-51570000D01*
X2492380Y-51522380D01*
X2730476Y-51522380D01*
X2825714Y-51570000D01*
X2873333Y-51617619D01*
X2920952Y-51712857D01*
X2920952Y-51808095D01*
X2873333Y-51950952D01*
X2301904Y-52522380D01*
X2920952Y-52522380D01*
X3254285Y-51855714D02*
X3492380Y-52522380D01*
X3730476Y-51855714D01*
X1778095Y-49030000D02*
X1682857Y-48982380D01*
X1540000Y-48982380D01*
X1397142Y-49030000D01*
X1301904Y-49125238D01*
X1254285Y-49220476D01*
X1206666Y-49410952D01*
X1206666Y-49553809D01*
X1254285Y-49744285D01*
X1301904Y-49839523D01*
X1397142Y-49934761D01*
X1540000Y-49982380D01*
X1635238Y-49982380D01*
X1778095Y-49934761D01*
X1825714Y-49887142D01*
X1825714Y-49553809D01*
X1635238Y-49553809D01*
X2254285Y-49982380D02*
X2254285Y-48982380D01*
X2825714Y-49982380D01*
X2825714Y-48982380D01*
X3301904Y-49982380D02*
X3301904Y-48982380D01*
X3540000Y-48982380D01*
X3682857Y-49030000D01*
X3778095Y-49125238D01*
X3825714Y-49220476D01*
X3873333Y-49410952D01*
X3873333Y-49553809D01*
X3825714Y-49744285D01*
X3778095Y-49839523D01*
X3682857Y-49934761D01*
X3540000Y-49982380D01*
X3301904Y-49982380D01*
X1778095Y-46490000D02*
X1682857Y-46442380D01*
X1540000Y-46442380D01*
X1397142Y-46490000D01*
X1301904Y-46585238D01*
X1254285Y-46680476D01*
X1206666Y-46870952D01*
X1206666Y-47013809D01*
X1254285Y-47204285D01*
X1301904Y-47299523D01*
X1397142Y-47394761D01*
X1540000Y-47442380D01*
X1635238Y-47442380D01*
X1778095Y-47394761D01*
X1825714Y-47347142D01*
X1825714Y-47013809D01*
X1635238Y-47013809D01*
X2254285Y-47442380D02*
X2254285Y-46442380D01*
X2825714Y-47442380D01*
X2825714Y-46442380D01*
X3301904Y-47442380D02*
X3301904Y-46442380D01*
X3540000Y-46442380D01*
X3682857Y-46490000D01*
X3778095Y-46585238D01*
X3825714Y-46680476D01*
X3873333Y-46870952D01*
X3873333Y-47013809D01*
X3825714Y-47204285D01*
X3778095Y-47299523D01*
X3682857Y-47394761D01*
X3540000Y-47442380D01*
X3301904Y-47442380D01*
X1778095Y-43950000D02*
X1682857Y-43902380D01*
X1540000Y-43902380D01*
X1397142Y-43950000D01*
X1301904Y-44045238D01*
X1254285Y-44140476D01*
X1206666Y-44330952D01*
X1206666Y-44473809D01*
X1254285Y-44664285D01*
X1301904Y-44759523D01*
X1397142Y-44854761D01*
X1540000Y-44902380D01*
X1635238Y-44902380D01*
X1778095Y-44854761D01*
X1825714Y-44807142D01*
X1825714Y-44473809D01*
X1635238Y-44473809D01*
X2254285Y-44902380D02*
X2254285Y-43902380D01*
X2825714Y-44902380D01*
X2825714Y-43902380D01*
X3301904Y-44902380D02*
X3301904Y-43902380D01*
X3540000Y-43902380D01*
X3682857Y-43950000D01*
X3778095Y-44045238D01*
X3825714Y-44140476D01*
X3873333Y-44330952D01*
X3873333Y-44473809D01*
X3825714Y-44664285D01*
X3778095Y-44759523D01*
X3682857Y-44854761D01*
X3540000Y-44902380D01*
X3301904Y-44902380D01*
X825714Y-41981428D02*
X1587619Y-41981428D01*
X2587619Y-42362380D02*
X2016190Y-42362380D01*
X2301904Y-42362380D02*
X2301904Y-41362380D01*
X2206666Y-41505238D01*
X2111428Y-41600476D01*
X2016190Y-41648095D01*
X2968571Y-41457619D02*
X3016190Y-41410000D01*
X3111428Y-41362380D01*
X3349523Y-41362380D01*
X3444761Y-41410000D01*
X3492380Y-41457619D01*
X3540000Y-41552857D01*
X3540000Y-41648095D01*
X3492380Y-41790952D01*
X2920952Y-42362380D01*
X3540000Y-42362380D01*
X3873333Y-41695714D02*
X4111428Y-42362380D01*
X4349523Y-41695714D01*
D11*
X83070000Y-3680000D02*
X92190000Y-3680000D01*
X92190000Y-3680000D02*
X92190000Y-31880000D01*
X92190000Y-31880000D02*
X83070000Y-31880000D01*
X83070000Y-31880000D02*
X83070000Y-3680000D01*
X83070000Y-15730000D02*
X84380000Y-15730000D01*
X84380000Y-15730000D02*
X84380000Y-4980000D01*
X84380000Y-4980000D02*
X90880000Y-4980000D01*
X90880000Y-4980000D02*
X90880000Y-30580000D01*
X90880000Y-30580000D02*
X84380000Y-30580000D01*
X84380000Y-30580000D02*
X84380000Y-19830000D01*
X84380000Y-19830000D02*
X84380000Y-19830000D01*
X84380000Y-19830000D02*
X83070000Y-19830000D01*
X82680000Y-8890000D02*
X81680000Y-8390000D01*
X81680000Y-8390000D02*
X81680000Y-9390000D01*
X81680000Y-9390000D02*
X82680000Y-8890000D01*
X81680000Y-42410000D02*
X82680000Y-41910000D01*
X81680000Y-41410000D02*
X81680000Y-42410000D01*
X82680000Y-41910000D02*
X81680000Y-41410000D01*
X84380000Y-52850000D02*
X83070000Y-52850000D01*
X84380000Y-52850000D02*
X84380000Y-52850000D01*
X84380000Y-63600000D02*
X84380000Y-52850000D01*
X90880000Y-63600000D02*
X84380000Y-63600000D01*
X90880000Y-38000000D02*
X90880000Y-63600000D01*
X84380000Y-38000000D02*
X90880000Y-38000000D01*
X84380000Y-48750000D02*
X84380000Y-38000000D01*
X83070000Y-48750000D02*
X84380000Y-48750000D01*
X83070000Y-64900000D02*
X83070000Y-36700000D01*
X92190000Y-64900000D02*
X83070000Y-64900000D01*
X92190000Y-36700000D02*
X92190000Y-64900000D01*
X83070000Y-36700000D02*
X92190000Y-36700000D01*
X43580000Y-42410000D02*
X44580000Y-41910000D01*
X43580000Y-41410000D02*
X43580000Y-42410000D01*
X44580000Y-41910000D02*
X43580000Y-41410000D01*
X46280000Y-52850000D02*
X44970000Y-52850000D01*
X46280000Y-52850000D02*
X46280000Y-52850000D01*
X46280000Y-63600000D02*
X46280000Y-52850000D01*
X52780000Y-63600000D02*
X46280000Y-63600000D01*
X52780000Y-38000000D02*
X52780000Y-63600000D01*
X46280000Y-38000000D02*
X52780000Y-38000000D01*
X46280000Y-48750000D02*
X46280000Y-38000000D01*
X44970000Y-48750000D02*
X46280000Y-48750000D01*
X44970000Y-64900000D02*
X44970000Y-36700000D01*
X54090000Y-64900000D02*
X44970000Y-64900000D01*
X54090000Y-36700000D02*
X54090000Y-64900000D01*
X44970000Y-36700000D02*
X54090000Y-36700000D01*
X30880000Y-9390000D02*
X31880000Y-8890000D01*
X30880000Y-8390000D02*
X30880000Y-9390000D01*
X31880000Y-8890000D02*
X30880000Y-8390000D01*
X33580000Y-19830000D02*
X32270000Y-19830000D01*
X33580000Y-19830000D02*
X33580000Y-19830000D01*
X33580000Y-30580000D02*
X33580000Y-19830000D01*
X40080000Y-30580000D02*
X33580000Y-30580000D01*
X40080000Y-4980000D02*
X40080000Y-30580000D01*
X33580000Y-4980000D02*
X40080000Y-4980000D01*
X33580000Y-15730000D02*
X33580000Y-4980000D01*
X32270000Y-15730000D02*
X33580000Y-15730000D01*
X32270000Y-31880000D02*
X32270000Y-3680000D01*
X41390000Y-31880000D02*
X32270000Y-31880000D01*
X41390000Y-3680000D02*
X41390000Y-31880000D01*
X32270000Y-3680000D02*
X41390000Y-3680000D01*
X32270000Y-36700000D02*
X41390000Y-36700000D01*
X41390000Y-36700000D02*
X41390000Y-64900000D01*
X41390000Y-64900000D02*
X32270000Y-64900000D01*
X32270000Y-64900000D02*
X32270000Y-36700000D01*
X32270000Y-48750000D02*
X33580000Y-48750000D01*
X33580000Y-48750000D02*
X33580000Y-38000000D01*
X33580000Y-38000000D02*
X40080000Y-38000000D01*
X40080000Y-38000000D02*
X40080000Y-63600000D01*
X40080000Y-63600000D02*
X33580000Y-63600000D01*
X33580000Y-63600000D02*
X33580000Y-52850000D01*
X33580000Y-52850000D02*
X33580000Y-52850000D01*
X33580000Y-52850000D02*
X32270000Y-52850000D01*
X31880000Y-41910000D02*
X30880000Y-41410000D01*
X30880000Y-41410000D02*
X30880000Y-42410000D01*
X30880000Y-42410000D02*
X31880000Y-41910000D01*
X44970000Y-3680000D02*
X54090000Y-3680000D01*
X54090000Y-3680000D02*
X54090000Y-31880000D01*
X54090000Y-31880000D02*
X44970000Y-31880000D01*
X44970000Y-31880000D02*
X44970000Y-3680000D01*
X44970000Y-15730000D02*
X46280000Y-15730000D01*
X46280000Y-15730000D02*
X46280000Y-4980000D01*
X46280000Y-4980000D02*
X52780000Y-4980000D01*
X52780000Y-4980000D02*
X52780000Y-30580000D01*
X52780000Y-30580000D02*
X46280000Y-30580000D01*
X46280000Y-30580000D02*
X46280000Y-19830000D01*
X46280000Y-19830000D02*
X46280000Y-19830000D01*
X46280000Y-19830000D02*
X44970000Y-19830000D01*
X44580000Y-8890000D02*
X43580000Y-8390000D01*
X43580000Y-8390000D02*
X43580000Y-9390000D01*
X43580000Y-9390000D02*
X44580000Y-8890000D01*
X68980000Y-9390000D02*
X69980000Y-8890000D01*
X68980000Y-8390000D02*
X68980000Y-9390000D01*
X69980000Y-8890000D02*
X68980000Y-8390000D01*
X71680000Y-19830000D02*
X70370000Y-19830000D01*
X71680000Y-19830000D02*
X71680000Y-19830000D01*
X71680000Y-30580000D02*
X71680000Y-19830000D01*
X78180000Y-30580000D02*
X71680000Y-30580000D01*
X78180000Y-4980000D02*
X78180000Y-30580000D01*
X71680000Y-4980000D02*
X78180000Y-4980000D01*
X71680000Y-15730000D02*
X71680000Y-4980000D01*
X70370000Y-15730000D02*
X71680000Y-15730000D01*
X70370000Y-31880000D02*
X70370000Y-3680000D01*
X79490000Y-31880000D02*
X70370000Y-31880000D01*
X79490000Y-3680000D02*
X79490000Y-31880000D01*
X70370000Y-3680000D02*
X79490000Y-3680000D01*
X56280000Y-42410000D02*
X57280000Y-41910000D01*
X56280000Y-41410000D02*
X56280000Y-42410000D01*
X57280000Y-41910000D02*
X56280000Y-41410000D01*
X58980000Y-52850000D02*
X57670000Y-52850000D01*
X58980000Y-52850000D02*
X58980000Y-52850000D01*
X58980000Y-63600000D02*
X58980000Y-52850000D01*
X65480000Y-63600000D02*
X58980000Y-63600000D01*
X65480000Y-38000000D02*
X65480000Y-63600000D01*
X58980000Y-38000000D02*
X65480000Y-38000000D01*
X58980000Y-48750000D02*
X58980000Y-38000000D01*
X57670000Y-48750000D02*
X58980000Y-48750000D01*
X57670000Y-64900000D02*
X57670000Y-36700000D01*
X66790000Y-64900000D02*
X57670000Y-64900000D01*
X66790000Y-36700000D02*
X66790000Y-64900000D01*
X57670000Y-36700000D02*
X66790000Y-36700000D01*
X70370000Y-36700000D02*
X79490000Y-36700000D01*
X79490000Y-36700000D02*
X79490000Y-64900000D01*
X79490000Y-64900000D02*
X70370000Y-64900000D01*
X70370000Y-64900000D02*
X70370000Y-36700000D01*
X70370000Y-48750000D02*
X71680000Y-48750000D01*
X71680000Y-48750000D02*
X71680000Y-38000000D01*
X71680000Y-38000000D02*
X78180000Y-38000000D01*
X78180000Y-38000000D02*
X78180000Y-63600000D01*
X78180000Y-63600000D02*
X71680000Y-63600000D01*
X71680000Y-63600000D02*
X71680000Y-52850000D01*
X71680000Y-52850000D02*
X71680000Y-52850000D01*
X71680000Y-52850000D02*
X70370000Y-52850000D01*
X69980000Y-41910000D02*
X68980000Y-41410000D01*
X68980000Y-41410000D02*
X68980000Y-42410000D01*
X68980000Y-42410000D02*
X69980000Y-41910000D01*
X57670000Y-3680000D02*
X66790000Y-3680000D01*
X66790000Y-3680000D02*
X66790000Y-31880000D01*
X66790000Y-31880000D02*
X57670000Y-31880000D01*
X57670000Y-31880000D02*
X57670000Y-3680000D01*
X57670000Y-15730000D02*
X58980000Y-15730000D01*
X58980000Y-15730000D02*
X58980000Y-4980000D01*
X58980000Y-4980000D02*
X65480000Y-4980000D01*
X65480000Y-4980000D02*
X65480000Y-30580000D01*
X65480000Y-30580000D02*
X58980000Y-30580000D01*
X58980000Y-30580000D02*
X58980000Y-19830000D01*
X58980000Y-19830000D02*
X58980000Y-19830000D01*
X58980000Y-19830000D02*
X57670000Y-19830000D01*
X57280000Y-8890000D02*
X56280000Y-8390000D01*
X56280000Y-8390000D02*
X56280000Y-9390000D01*
X56280000Y-9390000D02*
X57280000Y-8890000D01*
X19570000Y-3680000D02*
X28690000Y-3680000D01*
X28690000Y-3680000D02*
X28690000Y-31880000D01*
X28690000Y-31880000D02*
X19570000Y-31880000D01*
X19570000Y-31880000D02*
X19570000Y-3680000D01*
X19570000Y-15730000D02*
X20880000Y-15730000D01*
X20880000Y-15730000D02*
X20880000Y-4980000D01*
X20880000Y-4980000D02*
X27380000Y-4980000D01*
X27380000Y-4980000D02*
X27380000Y-30580000D01*
X27380000Y-30580000D02*
X20880000Y-30580000D01*
X20880000Y-30580000D02*
X20880000Y-19830000D01*
X20880000Y-19830000D02*
X20880000Y-19830000D01*
X20880000Y-19830000D02*
X19570000Y-19830000D01*
X19180000Y-8890000D02*
X18180000Y-8390000D01*
X18180000Y-8390000D02*
X18180000Y-9390000D01*
X18180000Y-9390000D02*
X19180000Y-8890000D01*
X18180000Y-42410000D02*
X19180000Y-41910000D01*
X18180000Y-41410000D02*
X18180000Y-42410000D01*
X19180000Y-41910000D02*
X18180000Y-41410000D01*
X20880000Y-52850000D02*
X19570000Y-52850000D01*
X20880000Y-52850000D02*
X20880000Y-52850000D01*
X20880000Y-63600000D02*
X20880000Y-52850000D01*
X27380000Y-63600000D02*
X20880000Y-63600000D01*
X27380000Y-38000000D02*
X27380000Y-63600000D01*
X20880000Y-38000000D02*
X27380000Y-38000000D01*
X20880000Y-48750000D02*
X20880000Y-38000000D01*
X19570000Y-48750000D02*
X20880000Y-48750000D01*
X19570000Y-64900000D02*
X19570000Y-36700000D01*
X28690000Y-64900000D02*
X19570000Y-64900000D01*
X28690000Y-36700000D02*
X28690000Y-64900000D01*
X19570000Y-36700000D02*
X28690000Y-36700000D01*
X6870000Y-36700000D02*
X15990000Y-36700000D01*
X15990000Y-36700000D02*
X15990000Y-64900000D01*
X15990000Y-64900000D02*
X6870000Y-64900000D01*
X6870000Y-64900000D02*
X6870000Y-36700000D01*
X6870000Y-48750000D02*
X8180000Y-48750000D01*
X8180000Y-48750000D02*
X8180000Y-38000000D01*
X8180000Y-38000000D02*
X14680000Y-38000000D01*
X14680000Y-38000000D02*
X14680000Y-63600000D01*
X14680000Y-63600000D02*
X8180000Y-63600000D01*
X8180000Y-63600000D02*
X8180000Y-52850000D01*
X8180000Y-52850000D02*
X8180000Y-52850000D01*
X8180000Y-52850000D02*
X6870000Y-52850000D01*
X6480000Y-41910000D02*
X5480000Y-41410000D01*
X5480000Y-41410000D02*
X5480000Y-42410000D01*
X5480000Y-42410000D02*
X6480000Y-41910000D01*
X5480000Y-9390000D02*
X6480000Y-8890000D01*
X5480000Y-8390000D02*
X5480000Y-9390000D01*
X6480000Y-8890000D02*
X5480000Y-8390000D01*
X8180000Y-19830000D02*
X6870000Y-19830000D01*
X8180000Y-19830000D02*
X8180000Y-19830000D01*
X8180000Y-30580000D02*
X8180000Y-19830000D01*
X14680000Y-30580000D02*
X8180000Y-30580000D01*
X14680000Y-4980000D02*
X14680000Y-30580000D01*
X8180000Y-4980000D02*
X14680000Y-4980000D01*
X8180000Y-15730000D02*
X8180000Y-4980000D01*
X6870000Y-15730000D02*
X8180000Y-15730000D01*
X6870000Y-31880000D02*
X6870000Y-3680000D01*
X15990000Y-31880000D02*
X6870000Y-31880000D01*
X15990000Y-3680000D02*
X15990000Y-31880000D01*
X6870000Y-3680000D02*
X15990000Y-3680000D01*
D10*
X87296666Y-2242380D02*
X87963333Y-2242380D01*
X87534761Y-3242380D01*
X87439523Y-36262380D02*
X86868095Y-36262380D01*
X87153809Y-36262380D02*
X87153809Y-35262380D01*
X87058571Y-35405238D01*
X86963333Y-35500476D01*
X86868095Y-35548095D01*
X88296666Y-35595714D02*
X88296666Y-36262380D01*
X88058571Y-35214761D02*
X87820476Y-35929047D01*
X88439523Y-35929047D01*
X49339523Y-36262380D02*
X48768095Y-36262380D01*
X49053809Y-36262380D02*
X49053809Y-35262380D01*
X48958571Y-35405238D01*
X48863333Y-35500476D01*
X48768095Y-35548095D01*
X50291904Y-36262380D02*
X49720476Y-36262380D01*
X50006190Y-36262380D02*
X50006190Y-35262380D01*
X49910952Y-35405238D01*
X49815714Y-35500476D01*
X49720476Y-35548095D01*
X36496666Y-2242380D02*
X37115714Y-2242380D01*
X36782380Y-2623333D01*
X36925238Y-2623333D01*
X37020476Y-2670952D01*
X37068095Y-2718571D01*
X37115714Y-2813809D01*
X37115714Y-3051904D01*
X37068095Y-3147142D01*
X37020476Y-3194761D01*
X36925238Y-3242380D01*
X36639523Y-3242380D01*
X36544285Y-3194761D01*
X36496666Y-3147142D01*
X36639523Y-36262380D02*
X36068095Y-36262380D01*
X36353809Y-36262380D02*
X36353809Y-35262380D01*
X36258571Y-35405238D01*
X36163333Y-35500476D01*
X36068095Y-35548095D01*
X37258571Y-35262380D02*
X37353809Y-35262380D01*
X37449047Y-35310000D01*
X37496666Y-35357619D01*
X37544285Y-35452857D01*
X37591904Y-35643333D01*
X37591904Y-35881428D01*
X37544285Y-36071904D01*
X37496666Y-36167142D01*
X37449047Y-36214761D01*
X37353809Y-36262380D01*
X37258571Y-36262380D01*
X37163333Y-36214761D01*
X37115714Y-36167142D01*
X37068095Y-36071904D01*
X37020476Y-35881428D01*
X37020476Y-35643333D01*
X37068095Y-35452857D01*
X37115714Y-35357619D01*
X37163333Y-35310000D01*
X37258571Y-35262380D01*
X49720476Y-2575714D02*
X49720476Y-3242380D01*
X49482380Y-2194761D02*
X49244285Y-2909047D01*
X49863333Y-2909047D01*
X75120476Y-2242380D02*
X74930000Y-2242380D01*
X74834761Y-2290000D01*
X74787142Y-2337619D01*
X74691904Y-2480476D01*
X74644285Y-2670952D01*
X74644285Y-3051904D01*
X74691904Y-3147142D01*
X74739523Y-3194761D01*
X74834761Y-3242380D01*
X75025238Y-3242380D01*
X75120476Y-3194761D01*
X75168095Y-3147142D01*
X75215714Y-3051904D01*
X75215714Y-2813809D01*
X75168095Y-2718571D01*
X75120476Y-2670952D01*
X75025238Y-2623333D01*
X74834761Y-2623333D01*
X74739523Y-2670952D01*
X74691904Y-2718571D01*
X74644285Y-2813809D01*
X62039523Y-36262380D02*
X61468095Y-36262380D01*
X61753809Y-36262380D02*
X61753809Y-35262380D01*
X61658571Y-35405238D01*
X61563333Y-35500476D01*
X61468095Y-35548095D01*
X62420476Y-35357619D02*
X62468095Y-35310000D01*
X62563333Y-35262380D01*
X62801428Y-35262380D01*
X62896666Y-35310000D01*
X62944285Y-35357619D01*
X62991904Y-35452857D01*
X62991904Y-35548095D01*
X62944285Y-35690952D01*
X62372857Y-36262380D01*
X62991904Y-36262380D01*
X74739523Y-36262380D02*
X74168095Y-36262380D01*
X74453809Y-36262380D02*
X74453809Y-35262380D01*
X74358571Y-35405238D01*
X74263333Y-35500476D01*
X74168095Y-35548095D01*
X75072857Y-35262380D02*
X75691904Y-35262380D01*
X75358571Y-35643333D01*
X75501428Y-35643333D01*
X75596666Y-35690952D01*
X75644285Y-35738571D01*
X75691904Y-35833809D01*
X75691904Y-36071904D01*
X75644285Y-36167142D01*
X75596666Y-36214761D01*
X75501428Y-36262380D01*
X75215714Y-36262380D01*
X75120476Y-36214761D01*
X75072857Y-36167142D01*
X62468095Y-2242380D02*
X61991904Y-2242380D01*
X61944285Y-2718571D01*
X61991904Y-2670952D01*
X62087142Y-2623333D01*
X62325238Y-2623333D01*
X62420476Y-2670952D01*
X62468095Y-2718571D01*
X62515714Y-2813809D01*
X62515714Y-3051904D01*
X62468095Y-3147142D01*
X62420476Y-3194761D01*
X62325238Y-3242380D01*
X62087142Y-3242380D01*
X61991904Y-3194761D01*
X61944285Y-3147142D01*
X23844285Y-2337619D02*
X23891904Y-2290000D01*
X23987142Y-2242380D01*
X24225238Y-2242380D01*
X24320476Y-2290000D01*
X24368095Y-2337619D01*
X24415714Y-2432857D01*
X24415714Y-2528095D01*
X24368095Y-2670952D01*
X23796666Y-3242380D01*
X24415714Y-3242380D01*
X23939523Y-36262380D02*
X24130000Y-36262380D01*
X24225238Y-36214761D01*
X24272857Y-36167142D01*
X24368095Y-36024285D01*
X24415714Y-35833809D01*
X24415714Y-35452857D01*
X24368095Y-35357619D01*
X24320476Y-35310000D01*
X24225238Y-35262380D01*
X24034761Y-35262380D01*
X23939523Y-35310000D01*
X23891904Y-35357619D01*
X23844285Y-35452857D01*
X23844285Y-35690952D01*
X23891904Y-35786190D01*
X23939523Y-35833809D01*
X24034761Y-35881428D01*
X24225238Y-35881428D01*
X24320476Y-35833809D01*
X24368095Y-35786190D01*
X24415714Y-35690952D01*
X11334761Y-35690952D02*
X11239523Y-35643333D01*
X11191904Y-35595714D01*
X11144285Y-35500476D01*
X11144285Y-35452857D01*
X11191904Y-35357619D01*
X11239523Y-35310000D01*
X11334761Y-35262380D01*
X11525238Y-35262380D01*
X11620476Y-35310000D01*
X11668095Y-35357619D01*
X11715714Y-35452857D01*
X11715714Y-35500476D01*
X11668095Y-35595714D01*
X11620476Y-35643333D01*
X11525238Y-35690952D01*
X11334761Y-35690952D01*
X11239523Y-35738571D01*
X11191904Y-35786190D01*
X11144285Y-35881428D01*
X11144285Y-36071904D01*
X11191904Y-36167142D01*
X11239523Y-36214761D01*
X11334761Y-36262380D01*
X11525238Y-36262380D01*
X11620476Y-36214761D01*
X11668095Y-36167142D01*
X11715714Y-36071904D01*
X11715714Y-35881428D01*
X11668095Y-35786190D01*
X11620476Y-35738571D01*
X11525238Y-35690952D01*
X11715714Y-3242380D02*
X11144285Y-3242380D01*
X11430000Y-3242380D02*
X11430000Y-2242380D01*
X11334761Y-2385238D01*
X11239523Y-2480476D01*
X11144285Y-2528095D01*
%LPC*%
D12*
X95250000Y-2540000D03*
X2540000Y-2540000D03*
X2540000Y-67310000D03*
X95250000Y-67310000D03*
D13*
X88900000Y-26670000D03*
X88900000Y-24130000D03*
X88900000Y-21590000D03*
X88900000Y-19050000D03*
X88900000Y-16510000D03*
X88900000Y-13970000D03*
X88900000Y-11430000D03*
X88900000Y-8890000D03*
X86360000Y-26670000D03*
X86360000Y-24130000D03*
X86360000Y-21590000D03*
X86360000Y-19050000D03*
X86360000Y-16510000D03*
X86360000Y-13970000D03*
X86360000Y-11430000D03*
G36*
G01*
X85460000Y-9525294D02*
X85460000Y-8254706D01*
G75*
G02*
X85724706Y-7990000I264706J0D01*
G01*
X86995294Y-7990000D01*
G75*
G02*
X87260000Y-8254706I0J-264706D01*
G01*
X87260000Y-9525294D01*
G75*
G02*
X86995294Y-9790000I-264706J0D01*
G01*
X85724706Y-9790000D01*
G75*
G02*
X85460000Y-9525294I0J264706D01*
G01*
G37*
G36*
G01*
X85460000Y-42545294D02*
X85460000Y-41274706D01*
G75*
G02*
X85724706Y-41010000I264706J0D01*
G01*
X86995294Y-41010000D01*
G75*
G02*
X87260000Y-41274706I0J-264706D01*
G01*
X87260000Y-42545294D01*
G75*
G02*
X86995294Y-42810000I-264706J0D01*
G01*
X85724706Y-42810000D01*
G75*
G02*
X85460000Y-42545294I0J264706D01*
G01*
G37*
X86360000Y-44450000D03*
X86360000Y-46990000D03*
X86360000Y-49530000D03*
X86360000Y-52070000D03*
X86360000Y-54610000D03*
X86360000Y-57150000D03*
X86360000Y-59690000D03*
X88900000Y-41910000D03*
X88900000Y-44450000D03*
X88900000Y-46990000D03*
X88900000Y-49530000D03*
X88900000Y-52070000D03*
X88900000Y-54610000D03*
X88900000Y-57150000D03*
X88900000Y-59690000D03*
G36*
G01*
X47360000Y-42545294D02*
X47360000Y-41274706D01*
G75*
G02*
X47624706Y-41010000I264706J0D01*
G01*
X48895294Y-41010000D01*
G75*
G02*
X49160000Y-41274706I0J-264706D01*
G01*
X49160000Y-42545294D01*
G75*
G02*
X48895294Y-42810000I-264706J0D01*
G01*
X47624706Y-42810000D01*
G75*
G02*
X47360000Y-42545294I0J264706D01*
G01*
G37*
X48260000Y-44450000D03*
X48260000Y-46990000D03*
X48260000Y-49530000D03*
X48260000Y-52070000D03*
X48260000Y-54610000D03*
X48260000Y-57150000D03*
X48260000Y-59690000D03*
X50800000Y-41910000D03*
X50800000Y-44450000D03*
X50800000Y-46990000D03*
X50800000Y-49530000D03*
X50800000Y-52070000D03*
X50800000Y-54610000D03*
X50800000Y-57150000D03*
X50800000Y-59690000D03*
G36*
G01*
X34660000Y-9525294D02*
X34660000Y-8254706D01*
G75*
G02*
X34924706Y-7990000I264706J0D01*
G01*
X36195294Y-7990000D01*
G75*
G02*
X36460000Y-8254706I0J-264706D01*
G01*
X36460000Y-9525294D01*
G75*
G02*
X36195294Y-9790000I-264706J0D01*
G01*
X34924706Y-9790000D01*
G75*
G02*
X34660000Y-9525294I0J264706D01*
G01*
G37*
X35560000Y-11430000D03*
X35560000Y-13970000D03*
X35560000Y-16510000D03*
X35560000Y-19050000D03*
X35560000Y-21590000D03*
X35560000Y-24130000D03*
X35560000Y-26670000D03*
X38100000Y-8890000D03*
X38100000Y-11430000D03*
X38100000Y-13970000D03*
X38100000Y-16510000D03*
X38100000Y-19050000D03*
X38100000Y-21590000D03*
X38100000Y-24130000D03*
X38100000Y-26670000D03*
X38100000Y-59690000D03*
X38100000Y-57150000D03*
X38100000Y-54610000D03*
X38100000Y-52070000D03*
X38100000Y-49530000D03*
X38100000Y-46990000D03*
X38100000Y-44450000D03*
X38100000Y-41910000D03*
X35560000Y-59690000D03*
X35560000Y-57150000D03*
X35560000Y-54610000D03*
X35560000Y-52070000D03*
X35560000Y-49530000D03*
X35560000Y-46990000D03*
X35560000Y-44450000D03*
G36*
G01*
X34660000Y-42545294D02*
X34660000Y-41274706D01*
G75*
G02*
X34924706Y-41010000I264706J0D01*
G01*
X36195294Y-41010000D01*
G75*
G02*
X36460000Y-41274706I0J-264706D01*
G01*
X36460000Y-42545294D01*
G75*
G02*
X36195294Y-42810000I-264706J0D01*
G01*
X34924706Y-42810000D01*
G75*
G02*
X34660000Y-42545294I0J264706D01*
G01*
G37*
X50800000Y-26670000D03*
X50800000Y-24130000D03*
X50800000Y-21590000D03*
X50800000Y-19050000D03*
X50800000Y-16510000D03*
X50800000Y-13970000D03*
X50800000Y-11430000D03*
X50800000Y-8890000D03*
X48260000Y-26670000D03*
X48260000Y-24130000D03*
X48260000Y-21590000D03*
X48260000Y-19050000D03*
X48260000Y-16510000D03*
X48260000Y-13970000D03*
X48260000Y-11430000D03*
G36*
G01*
X47360000Y-9525294D02*
X47360000Y-8254706D01*
G75*
G02*
X47624706Y-7990000I264706J0D01*
G01*
X48895294Y-7990000D01*
G75*
G02*
X49160000Y-8254706I0J-264706D01*
G01*
X49160000Y-9525294D01*
G75*
G02*
X48895294Y-9790000I-264706J0D01*
G01*
X47624706Y-9790000D01*
G75*
G02*
X47360000Y-9525294I0J264706D01*
G01*
G37*
G36*
G01*
X72760000Y-9525294D02*
X72760000Y-8254706D01*
G75*
G02*
X73024706Y-7990000I264706J0D01*
G01*
X74295294Y-7990000D01*
G75*
G02*
X74560000Y-8254706I0J-264706D01*
G01*
X74560000Y-9525294D01*
G75*
G02*
X74295294Y-9790000I-264706J0D01*
G01*
X73024706Y-9790000D01*
G75*
G02*
X72760000Y-9525294I0J264706D01*
G01*
G37*
X73660000Y-11430000D03*
X73660000Y-13970000D03*
X73660000Y-16510000D03*
X73660000Y-19050000D03*
X73660000Y-21590000D03*
X73660000Y-24130000D03*
X73660000Y-26670000D03*
X76200000Y-8890000D03*
X76200000Y-11430000D03*
X76200000Y-13970000D03*
X76200000Y-16510000D03*
X76200000Y-19050000D03*
X76200000Y-21590000D03*
X76200000Y-24130000D03*
X76200000Y-26670000D03*
G36*
G01*
X60060000Y-42545294D02*
X60060000Y-41274706D01*
G75*
G02*
X60324706Y-41010000I264706J0D01*
G01*
X61595294Y-41010000D01*
G75*
G02*
X61860000Y-41274706I0J-264706D01*
G01*
X61860000Y-42545294D01*
G75*
G02*
X61595294Y-42810000I-264706J0D01*
G01*
X60324706Y-42810000D01*
G75*
G02*
X60060000Y-42545294I0J264706D01*
G01*
G37*
X60960000Y-44450000D03*
X60960000Y-46990000D03*
X60960000Y-49530000D03*
X60960000Y-52070000D03*
X60960000Y-54610000D03*
X60960000Y-57150000D03*
X60960000Y-59690000D03*
X63500000Y-41910000D03*
X63500000Y-44450000D03*
X63500000Y-46990000D03*
X63500000Y-49530000D03*
X63500000Y-52070000D03*
X63500000Y-54610000D03*
X63500000Y-57150000D03*
X63500000Y-59690000D03*
X76200000Y-59690000D03*
X76200000Y-57150000D03*
X76200000Y-54610000D03*
X76200000Y-52070000D03*
X76200000Y-49530000D03*
X76200000Y-46990000D03*
X76200000Y-44450000D03*
X76200000Y-41910000D03*
X73660000Y-59690000D03*
X73660000Y-57150000D03*
X73660000Y-54610000D03*
X73660000Y-52070000D03*
X73660000Y-49530000D03*
X73660000Y-46990000D03*
X73660000Y-44450000D03*
G36*
G01*
X72760000Y-42545294D02*
X72760000Y-41274706D01*
G75*
G02*
X73024706Y-41010000I264706J0D01*
G01*
X74295294Y-41010000D01*
G75*
G02*
X74560000Y-41274706I0J-264706D01*
G01*
X74560000Y-42545294D01*
G75*
G02*
X74295294Y-42810000I-264706J0D01*
G01*
X73024706Y-42810000D01*
G75*
G02*
X72760000Y-42545294I0J264706D01*
G01*
G37*
X63500000Y-26670000D03*
X63500000Y-24130000D03*
X63500000Y-21590000D03*
X63500000Y-19050000D03*
X63500000Y-16510000D03*
X63500000Y-13970000D03*
X63500000Y-11430000D03*
X63500000Y-8890000D03*
X60960000Y-26670000D03*
X60960000Y-24130000D03*
X60960000Y-21590000D03*
X60960000Y-19050000D03*
X60960000Y-16510000D03*
X60960000Y-13970000D03*
X60960000Y-11430000D03*
G36*
G01*
X60060000Y-9525294D02*
X60060000Y-8254706D01*
G75*
G02*
X60324706Y-7990000I264706J0D01*
G01*
X61595294Y-7990000D01*
G75*
G02*
X61860000Y-8254706I0J-264706D01*
G01*
X61860000Y-9525294D01*
G75*
G02*
X61595294Y-9790000I-264706J0D01*
G01*
X60324706Y-9790000D01*
G75*
G02*
X60060000Y-9525294I0J264706D01*
G01*
G37*
X25400000Y-26670000D03*
X25400000Y-24130000D03*
X25400000Y-21590000D03*
X25400000Y-19050000D03*
X25400000Y-16510000D03*
X25400000Y-13970000D03*
X25400000Y-11430000D03*
X25400000Y-8890000D03*
X22860000Y-26670000D03*
X22860000Y-24130000D03*
X22860000Y-21590000D03*
X22860000Y-19050000D03*
X22860000Y-16510000D03*
X22860000Y-13970000D03*
X22860000Y-11430000D03*
G36*
G01*
X21960000Y-9525294D02*
X21960000Y-8254706D01*
G75*
G02*
X22224706Y-7990000I264706J0D01*
G01*
X23495294Y-7990000D01*
G75*
G02*
X23760000Y-8254706I0J-264706D01*
G01*
X23760000Y-9525294D01*
G75*
G02*
X23495294Y-9790000I-264706J0D01*
G01*
X22224706Y-9790000D01*
G75*
G02*
X21960000Y-9525294I0J264706D01*
G01*
G37*
G36*
G01*
X21960000Y-42545294D02*
X21960000Y-41274706D01*
G75*
G02*
X22224706Y-41010000I264706J0D01*
G01*
X23495294Y-41010000D01*
G75*
G02*
X23760000Y-41274706I0J-264706D01*
G01*
X23760000Y-42545294D01*
G75*
G02*
X23495294Y-42810000I-264706J0D01*
G01*
X22224706Y-42810000D01*
G75*
G02*
X21960000Y-42545294I0J264706D01*
G01*
G37*
X22860000Y-44450000D03*
X22860000Y-46990000D03*
X22860000Y-49530000D03*
X22860000Y-52070000D03*
X22860000Y-54610000D03*
X22860000Y-57150000D03*
X22860000Y-59690000D03*
X25400000Y-41910000D03*
X25400000Y-44450000D03*
X25400000Y-46990000D03*
X25400000Y-49530000D03*
X25400000Y-52070000D03*
X25400000Y-54610000D03*
X25400000Y-57150000D03*
X25400000Y-59690000D03*
X12700000Y-59690000D03*
X12700000Y-57150000D03*
X12700000Y-54610000D03*
X12700000Y-52070000D03*
X12700000Y-49530000D03*
X12700000Y-46990000D03*
X12700000Y-44450000D03*
X12700000Y-41910000D03*
X10160000Y-59690000D03*
X10160000Y-57150000D03*
X10160000Y-54610000D03*
X10160000Y-52070000D03*
X10160000Y-49530000D03*
X10160000Y-46990000D03*
X10160000Y-44450000D03*
G36*
G01*
X9260000Y-42545294D02*
X9260000Y-41274706D01*
G75*
G02*
X9524706Y-41010000I264706J0D01*
G01*
X10795294Y-41010000D01*
G75*
G02*
X11060000Y-41274706I0J-264706D01*
G01*
X11060000Y-42545294D01*
G75*
G02*
X10795294Y-42810000I-264706J0D01*
G01*
X9524706Y-42810000D01*
G75*
G02*
X9260000Y-42545294I0J264706D01*
G01*
G37*
G36*
G01*
X9260000Y-9525294D02*
X9260000Y-8254706D01*
G75*
G02*
X9524706Y-7990000I264706J0D01*
G01*
X10795294Y-7990000D01*
G75*
G02*
X11060000Y-8254706I0J-264706D01*
G01*
X11060000Y-9525294D01*
G75*
G02*
X10795294Y-9790000I-264706J0D01*
G01*
X9524706Y-9790000D01*
G75*
G02*
X9260000Y-9525294I0J264706D01*
G01*
G37*
X10160000Y-11430000D03*
X10160000Y-13970000D03*
X10160000Y-16510000D03*
X10160000Y-19050000D03*
X10160000Y-21590000D03*
X10160000Y-24130000D03*
X10160000Y-26670000D03*
X12700000Y-8890000D03*
X12700000Y-11430000D03*
X12700000Y-13970000D03*
X12700000Y-16510000D03*
X12700000Y-19050000D03*
X12700000Y-21590000D03*
X12700000Y-24130000D03*
X12700000Y-26670000D03*
M02*
