M48
; DRILL file {KiCad (5.1.6-0-10_14)} date Friday, July 16, 2021 at 11:08:20 PM
; FORMAT={-:-/ absolute / inch / decimal}
; #@! TF.CreationDate,2021-07-16T23:08:20+02:00
; #@! TF.GenerationSoftware,Kicad,Pcbnew,(5.1.6-0-10_14)
; #@! TF.FileFunction,Plated,1,2,PTH
FMAT,2
INCH
T1C0.0157
T2C0.0394
%
G90
G05
T1
X0.7Y-0.55
X0.7Y-1.85
X1.2Y-0.65
X1.2Y-1.95
X1.7Y-0.75
X1.7Y-2.05
X2.2Y-0.85
X2.2Y-2.15
X2.7Y-0.95
X2.7Y-2.25
X3.2Y-1.05
X3.2Y-2.35
T2
X1.4Y-1.65
X1.4Y-1.75
X1.4Y-1.85
X1.4Y-1.95
X1.4Y-2.05
X1.4Y-2.15
X1.4Y-2.25
X1.4Y-2.35
X1.5Y-1.65
X1.5Y-1.75
X1.5Y-1.85
X1.5Y-1.95
X1.5Y-2.05
X1.5Y-2.15
X1.5Y-2.25
X1.5Y-2.35
X2.4Y-1.65
X2.4Y-1.75
X2.4Y-1.85
X2.4Y-1.95
X2.4Y-2.05
X2.4Y-2.15
X2.4Y-2.25
X2.4Y-2.35
X2.5Y-1.65
X2.5Y-1.75
X2.5Y-1.85
X2.5Y-1.95
X2.5Y-2.05
X2.5Y-2.15
X2.5Y-2.25
X2.5Y-2.35
X1.9Y-1.65
X1.9Y-1.75
X1.9Y-1.85
X1.9Y-1.95
X1.9Y-2.05
X1.9Y-2.15
X1.9Y-2.25
X1.9Y-2.35
X2.0Y-1.65
X2.0Y-1.75
X2.0Y-1.85
X2.0Y-1.95
X2.0Y-2.05
X2.0Y-2.15
X2.0Y-2.25
X2.0Y-2.35
X1.9Y-0.35
X1.9Y-0.45
X1.9Y-0.55
X1.9Y-0.65
X1.9Y-0.75
X1.9Y-0.85
X1.9Y-0.95
X1.9Y-1.05
X2.0Y-0.35
X2.0Y-0.45
X2.0Y-0.55
X2.0Y-0.65
X2.0Y-0.75
X2.0Y-0.85
X2.0Y-0.95
X2.0Y-1.05
X0.4Y-1.65
X0.4Y-1.75
X0.4Y-1.85
X0.4Y-1.95
X0.4Y-2.05
X0.4Y-2.15
X0.4Y-2.25
X0.4Y-2.35
X0.5Y-1.65
X0.5Y-1.75
X0.5Y-1.85
X0.5Y-1.95
X0.5Y-2.05
X0.5Y-2.15
X0.5Y-2.25
X0.5Y-2.35
X0.4Y-0.35
X0.4Y-0.45
X0.4Y-0.55
X0.4Y-0.65
X0.4Y-0.75
X0.4Y-0.85
X0.4Y-0.95
X0.4Y-1.05
X0.5Y-0.35
X0.5Y-0.45
X0.5Y-0.55
X0.5Y-0.65
X0.5Y-0.75
X0.5Y-0.85
X0.5Y-0.95
X0.5Y-1.05
X2.4Y-0.35
X2.4Y-0.45
X2.4Y-0.55
X2.4Y-0.65
X2.4Y-0.75
X2.4Y-0.85
X2.4Y-0.95
X2.4Y-1.05
X2.5Y-0.35
X2.5Y-0.45
X2.5Y-0.55
X2.5Y-0.65
X2.5Y-0.75
X2.5Y-0.85
X2.5Y-0.95
X2.5Y-1.05
X0.9Y-0.35
X0.9Y-0.45
X0.9Y-0.55
X0.9Y-0.65
X0.9Y-0.75
X0.9Y-0.85
X0.9Y-0.95
X0.9Y-1.05
X1.0Y-0.35
X1.0Y-0.45
X1.0Y-0.55
X1.0Y-0.65
X1.0Y-0.75
X1.0Y-0.85
X1.0Y-0.95
X1.0Y-1.05
X3.4Y-1.65
X3.4Y-1.75
X3.4Y-1.85
X3.4Y-1.95
X3.4Y-2.05
X3.4Y-2.15
X3.4Y-2.25
X3.4Y-2.35
X3.5Y-1.65
X3.5Y-1.75
X3.5Y-1.85
X3.5Y-1.95
X3.5Y-2.05
X3.5Y-2.15
X3.5Y-2.25
X3.5Y-2.35
X2.9Y-1.65
X2.9Y-1.75
X2.9Y-1.85
X2.9Y-1.95
X2.9Y-2.05
X2.9Y-2.15
X2.9Y-2.25
X2.9Y-2.35
X3.0Y-1.65
X3.0Y-1.75
X3.0Y-1.85
X3.0Y-1.95
X3.0Y-2.05
X3.0Y-2.15
X3.0Y-2.25
X3.0Y-2.35
X0.9Y-1.65
X0.9Y-1.75
X0.9Y-1.85
X0.9Y-1.95
X0.9Y-2.05
X0.9Y-2.15
X0.9Y-2.25
X0.9Y-2.35
X1.0Y-1.65
X1.0Y-1.75
X1.0Y-1.85
X1.0Y-1.95
X1.0Y-2.05
X1.0Y-2.15
X1.0Y-2.25
X1.0Y-2.35
X1.4Y-0.35
X1.4Y-0.45
X1.4Y-0.55
X1.4Y-0.65
X1.4Y-0.75
X1.4Y-0.85
X1.4Y-0.95
X1.4Y-1.05
X1.5Y-0.35
X1.5Y-0.45
X1.5Y-0.55
X1.5Y-0.65
X1.5Y-0.75
X1.5Y-0.85
X1.5Y-0.95
X1.5Y-1.05
X3.4Y-0.35
X3.4Y-0.45
X3.4Y-0.55
X3.4Y-0.65
X3.4Y-0.75
X3.4Y-0.85
X3.4Y-0.95
X3.4Y-1.05
X3.5Y-0.35
X3.5Y-0.45
X3.5Y-0.55
X3.5Y-0.65
X3.5Y-0.75
X3.5Y-0.85
X3.5Y-0.95
X3.5Y-1.05
X2.9Y-0.35
X2.9Y-0.45
X2.9Y-0.55
X2.9Y-0.65
X2.9Y-0.75
X2.9Y-0.85
X2.9Y-0.95
X2.9Y-1.05
X3.0Y-0.35
X3.0Y-0.45
X3.0Y-0.55
X3.0Y-0.65
X3.0Y-0.75
X3.0Y-0.85
X3.0Y-0.95
X3.0Y-1.05
T0
M30
