G04 #@! TF.GenerationSoftware,KiCad,Pcbnew,(5.1.6-0-10_14)*
G04 #@! TF.CreationDate,2021-07-16T23:08:20+02:00*
G04 #@! TF.ProjectId,eurorack-busboard,6575726f-7261-4636-9b2d-627573626f61,rev?*
G04 #@! TF.SameCoordinates,Original*
G04 #@! TF.FileFunction,Copper,L2,Bot*
G04 #@! TF.FilePolarity,Positive*
%FSLAX46Y46*%
G04 Gerber Fmt 4.6, Leading zero omitted, Abs format (unit mm)*
G04 Created by KiCad (PCBNEW (5.1.6-0-10_14)) date 2021-07-16 23:08:20*
%MOMM*%
%LPD*%
G01*
G04 APERTURE LIST*
G04 #@! TA.AperFunction,ComponentPad*
%ADD10C,1.700000*%
G04 #@! TD*
G04 #@! TA.AperFunction,ViaPad*
%ADD11C,0.800000*%
G04 #@! TD*
G04 #@! TA.AperFunction,Conductor*
%ADD12C,0.250000*%
G04 #@! TD*
G04 APERTURE END LIST*
D10*
X88900000Y-26670000D03*
X88900000Y-24130000D03*
X88900000Y-21590000D03*
X88900000Y-19050000D03*
X88900000Y-16510000D03*
X88900000Y-13970000D03*
X88900000Y-11430000D03*
X88900000Y-8890000D03*
X86360000Y-26670000D03*
X86360000Y-24130000D03*
X86360000Y-21590000D03*
X86360000Y-19050000D03*
X86360000Y-16510000D03*
X86360000Y-13970000D03*
X86360000Y-11430000D03*
G04 #@! TA.AperFunction,ComponentPad*
G36*
G01*
X85510000Y-9490000D02*
X85510000Y-8290000D01*
G75*
G02*
X85760000Y-8040000I250000J0D01*
G01*
X86960000Y-8040000D01*
G75*
G02*
X87210000Y-8290000I0J-250000D01*
G01*
X87210000Y-9490000D01*
G75*
G02*
X86960000Y-9740000I-250000J0D01*
G01*
X85760000Y-9740000D01*
G75*
G02*
X85510000Y-9490000I0J250000D01*
G01*
G37*
G04 #@! TD.AperFunction*
G04 #@! TA.AperFunction,ComponentPad*
G36*
G01*
X85510000Y-42510000D02*
X85510000Y-41310000D01*
G75*
G02*
X85760000Y-41060000I250000J0D01*
G01*
X86960000Y-41060000D01*
G75*
G02*
X87210000Y-41310000I0J-250000D01*
G01*
X87210000Y-42510000D01*
G75*
G02*
X86960000Y-42760000I-250000J0D01*
G01*
X85760000Y-42760000D01*
G75*
G02*
X85510000Y-42510000I0J250000D01*
G01*
G37*
G04 #@! TD.AperFunction*
X86360000Y-44450000D03*
X86360000Y-46990000D03*
X86360000Y-49530000D03*
X86360000Y-52070000D03*
X86360000Y-54610000D03*
X86360000Y-57150000D03*
X86360000Y-59690000D03*
X88900000Y-41910000D03*
X88900000Y-44450000D03*
X88900000Y-46990000D03*
X88900000Y-49530000D03*
X88900000Y-52070000D03*
X88900000Y-54610000D03*
X88900000Y-57150000D03*
X88900000Y-59690000D03*
G04 #@! TA.AperFunction,ComponentPad*
G36*
G01*
X47410000Y-42510000D02*
X47410000Y-41310000D01*
G75*
G02*
X47660000Y-41060000I250000J0D01*
G01*
X48860000Y-41060000D01*
G75*
G02*
X49110000Y-41310000I0J-250000D01*
G01*
X49110000Y-42510000D01*
G75*
G02*
X48860000Y-42760000I-250000J0D01*
G01*
X47660000Y-42760000D01*
G75*
G02*
X47410000Y-42510000I0J250000D01*
G01*
G37*
G04 #@! TD.AperFunction*
X48260000Y-44450000D03*
X48260000Y-46990000D03*
X48260000Y-49530000D03*
X48260000Y-52070000D03*
X48260000Y-54610000D03*
X48260000Y-57150000D03*
X48260000Y-59690000D03*
X50800000Y-41910000D03*
X50800000Y-44450000D03*
X50800000Y-46990000D03*
X50800000Y-49530000D03*
X50800000Y-52070000D03*
X50800000Y-54610000D03*
X50800000Y-57150000D03*
X50800000Y-59690000D03*
G04 #@! TA.AperFunction,ComponentPad*
G36*
G01*
X34710000Y-9490000D02*
X34710000Y-8290000D01*
G75*
G02*
X34960000Y-8040000I250000J0D01*
G01*
X36160000Y-8040000D01*
G75*
G02*
X36410000Y-8290000I0J-250000D01*
G01*
X36410000Y-9490000D01*
G75*
G02*
X36160000Y-9740000I-250000J0D01*
G01*
X34960000Y-9740000D01*
G75*
G02*
X34710000Y-9490000I0J250000D01*
G01*
G37*
G04 #@! TD.AperFunction*
X35560000Y-11430000D03*
X35560000Y-13970000D03*
X35560000Y-16510000D03*
X35560000Y-19050000D03*
X35560000Y-21590000D03*
X35560000Y-24130000D03*
X35560000Y-26670000D03*
X38100000Y-8890000D03*
X38100000Y-11430000D03*
X38100000Y-13970000D03*
X38100000Y-16510000D03*
X38100000Y-19050000D03*
X38100000Y-21590000D03*
X38100000Y-24130000D03*
X38100000Y-26670000D03*
X38100000Y-59690000D03*
X38100000Y-57150000D03*
X38100000Y-54610000D03*
X38100000Y-52070000D03*
X38100000Y-49530000D03*
X38100000Y-46990000D03*
X38100000Y-44450000D03*
X38100000Y-41910000D03*
X35560000Y-59690000D03*
X35560000Y-57150000D03*
X35560000Y-54610000D03*
X35560000Y-52070000D03*
X35560000Y-49530000D03*
X35560000Y-46990000D03*
X35560000Y-44450000D03*
G04 #@! TA.AperFunction,ComponentPad*
G36*
G01*
X34710000Y-42510000D02*
X34710000Y-41310000D01*
G75*
G02*
X34960000Y-41060000I250000J0D01*
G01*
X36160000Y-41060000D01*
G75*
G02*
X36410000Y-41310000I0J-250000D01*
G01*
X36410000Y-42510000D01*
G75*
G02*
X36160000Y-42760000I-250000J0D01*
G01*
X34960000Y-42760000D01*
G75*
G02*
X34710000Y-42510000I0J250000D01*
G01*
G37*
G04 #@! TD.AperFunction*
X50800000Y-26670000D03*
X50800000Y-24130000D03*
X50800000Y-21590000D03*
X50800000Y-19050000D03*
X50800000Y-16510000D03*
X50800000Y-13970000D03*
X50800000Y-11430000D03*
X50800000Y-8890000D03*
X48260000Y-26670000D03*
X48260000Y-24130000D03*
X48260000Y-21590000D03*
X48260000Y-19050000D03*
X48260000Y-16510000D03*
X48260000Y-13970000D03*
X48260000Y-11430000D03*
G04 #@! TA.AperFunction,ComponentPad*
G36*
G01*
X47410000Y-9490000D02*
X47410000Y-8290000D01*
G75*
G02*
X47660000Y-8040000I250000J0D01*
G01*
X48860000Y-8040000D01*
G75*
G02*
X49110000Y-8290000I0J-250000D01*
G01*
X49110000Y-9490000D01*
G75*
G02*
X48860000Y-9740000I-250000J0D01*
G01*
X47660000Y-9740000D01*
G75*
G02*
X47410000Y-9490000I0J250000D01*
G01*
G37*
G04 #@! TD.AperFunction*
G04 #@! TA.AperFunction,ComponentPad*
G36*
G01*
X72810000Y-9490000D02*
X72810000Y-8290000D01*
G75*
G02*
X73060000Y-8040000I250000J0D01*
G01*
X74260000Y-8040000D01*
G75*
G02*
X74510000Y-8290000I0J-250000D01*
G01*
X74510000Y-9490000D01*
G75*
G02*
X74260000Y-9740000I-250000J0D01*
G01*
X73060000Y-9740000D01*
G75*
G02*
X72810000Y-9490000I0J250000D01*
G01*
G37*
G04 #@! TD.AperFunction*
X73660000Y-11430000D03*
X73660000Y-13970000D03*
X73660000Y-16510000D03*
X73660000Y-19050000D03*
X73660000Y-21590000D03*
X73660000Y-24130000D03*
X73660000Y-26670000D03*
X76200000Y-8890000D03*
X76200000Y-11430000D03*
X76200000Y-13970000D03*
X76200000Y-16510000D03*
X76200000Y-19050000D03*
X76200000Y-21590000D03*
X76200000Y-24130000D03*
X76200000Y-26670000D03*
G04 #@! TA.AperFunction,ComponentPad*
G36*
G01*
X60110000Y-42510000D02*
X60110000Y-41310000D01*
G75*
G02*
X60360000Y-41060000I250000J0D01*
G01*
X61560000Y-41060000D01*
G75*
G02*
X61810000Y-41310000I0J-250000D01*
G01*
X61810000Y-42510000D01*
G75*
G02*
X61560000Y-42760000I-250000J0D01*
G01*
X60360000Y-42760000D01*
G75*
G02*
X60110000Y-42510000I0J250000D01*
G01*
G37*
G04 #@! TD.AperFunction*
X60960000Y-44450000D03*
X60960000Y-46990000D03*
X60960000Y-49530000D03*
X60960000Y-52070000D03*
X60960000Y-54610000D03*
X60960000Y-57150000D03*
X60960000Y-59690000D03*
X63500000Y-41910000D03*
X63500000Y-44450000D03*
X63500000Y-46990000D03*
X63500000Y-49530000D03*
X63500000Y-52070000D03*
X63500000Y-54610000D03*
X63500000Y-57150000D03*
X63500000Y-59690000D03*
X76200000Y-59690000D03*
X76200000Y-57150000D03*
X76200000Y-54610000D03*
X76200000Y-52070000D03*
X76200000Y-49530000D03*
X76200000Y-46990000D03*
X76200000Y-44450000D03*
X76200000Y-41910000D03*
X73660000Y-59690000D03*
X73660000Y-57150000D03*
X73660000Y-54610000D03*
X73660000Y-52070000D03*
X73660000Y-49530000D03*
X73660000Y-46990000D03*
X73660000Y-44450000D03*
G04 #@! TA.AperFunction,ComponentPad*
G36*
G01*
X72810000Y-42510000D02*
X72810000Y-41310000D01*
G75*
G02*
X73060000Y-41060000I250000J0D01*
G01*
X74260000Y-41060000D01*
G75*
G02*
X74510000Y-41310000I0J-250000D01*
G01*
X74510000Y-42510000D01*
G75*
G02*
X74260000Y-42760000I-250000J0D01*
G01*
X73060000Y-42760000D01*
G75*
G02*
X72810000Y-42510000I0J250000D01*
G01*
G37*
G04 #@! TD.AperFunction*
X63500000Y-26670000D03*
X63500000Y-24130000D03*
X63500000Y-21590000D03*
X63500000Y-19050000D03*
X63500000Y-16510000D03*
X63500000Y-13970000D03*
X63500000Y-11430000D03*
X63500000Y-8890000D03*
X60960000Y-26670000D03*
X60960000Y-24130000D03*
X60960000Y-21590000D03*
X60960000Y-19050000D03*
X60960000Y-16510000D03*
X60960000Y-13970000D03*
X60960000Y-11430000D03*
G04 #@! TA.AperFunction,ComponentPad*
G36*
G01*
X60110000Y-9490000D02*
X60110000Y-8290000D01*
G75*
G02*
X60360000Y-8040000I250000J0D01*
G01*
X61560000Y-8040000D01*
G75*
G02*
X61810000Y-8290000I0J-250000D01*
G01*
X61810000Y-9490000D01*
G75*
G02*
X61560000Y-9740000I-250000J0D01*
G01*
X60360000Y-9740000D01*
G75*
G02*
X60110000Y-9490000I0J250000D01*
G01*
G37*
G04 #@! TD.AperFunction*
X25400000Y-26670000D03*
X25400000Y-24130000D03*
X25400000Y-21590000D03*
X25400000Y-19050000D03*
X25400000Y-16510000D03*
X25400000Y-13970000D03*
X25400000Y-11430000D03*
X25400000Y-8890000D03*
X22860000Y-26670000D03*
X22860000Y-24130000D03*
X22860000Y-21590000D03*
X22860000Y-19050000D03*
X22860000Y-16510000D03*
X22860000Y-13970000D03*
X22860000Y-11430000D03*
G04 #@! TA.AperFunction,ComponentPad*
G36*
G01*
X22010000Y-9490000D02*
X22010000Y-8290000D01*
G75*
G02*
X22260000Y-8040000I250000J0D01*
G01*
X23460000Y-8040000D01*
G75*
G02*
X23710000Y-8290000I0J-250000D01*
G01*
X23710000Y-9490000D01*
G75*
G02*
X23460000Y-9740000I-250000J0D01*
G01*
X22260000Y-9740000D01*
G75*
G02*
X22010000Y-9490000I0J250000D01*
G01*
G37*
G04 #@! TD.AperFunction*
G04 #@! TA.AperFunction,ComponentPad*
G36*
G01*
X22010000Y-42510000D02*
X22010000Y-41310000D01*
G75*
G02*
X22260000Y-41060000I250000J0D01*
G01*
X23460000Y-41060000D01*
G75*
G02*
X23710000Y-41310000I0J-250000D01*
G01*
X23710000Y-42510000D01*
G75*
G02*
X23460000Y-42760000I-250000J0D01*
G01*
X22260000Y-42760000D01*
G75*
G02*
X22010000Y-42510000I0J250000D01*
G01*
G37*
G04 #@! TD.AperFunction*
X22860000Y-44450000D03*
X22860000Y-46990000D03*
X22860000Y-49530000D03*
X22860000Y-52070000D03*
X22860000Y-54610000D03*
X22860000Y-57150000D03*
X22860000Y-59690000D03*
X25400000Y-41910000D03*
X25400000Y-44450000D03*
X25400000Y-46990000D03*
X25400000Y-49530000D03*
X25400000Y-52070000D03*
X25400000Y-54610000D03*
X25400000Y-57150000D03*
X25400000Y-59690000D03*
X12700000Y-59690000D03*
X12700000Y-57150000D03*
X12700000Y-54610000D03*
X12700000Y-52070000D03*
X12700000Y-49530000D03*
X12700000Y-46990000D03*
X12700000Y-44450000D03*
X12700000Y-41910000D03*
X10160000Y-59690000D03*
X10160000Y-57150000D03*
X10160000Y-54610000D03*
X10160000Y-52070000D03*
X10160000Y-49530000D03*
X10160000Y-46990000D03*
X10160000Y-44450000D03*
G04 #@! TA.AperFunction,ComponentPad*
G36*
G01*
X9310000Y-42510000D02*
X9310000Y-41310000D01*
G75*
G02*
X9560000Y-41060000I250000J0D01*
G01*
X10760000Y-41060000D01*
G75*
G02*
X11010000Y-41310000I0J-250000D01*
G01*
X11010000Y-42510000D01*
G75*
G02*
X10760000Y-42760000I-250000J0D01*
G01*
X9560000Y-42760000D01*
G75*
G02*
X9310000Y-42510000I0J250000D01*
G01*
G37*
G04 #@! TD.AperFunction*
G04 #@! TA.AperFunction,ComponentPad*
G36*
G01*
X9310000Y-9490000D02*
X9310000Y-8290000D01*
G75*
G02*
X9560000Y-8040000I250000J0D01*
G01*
X10760000Y-8040000D01*
G75*
G02*
X11010000Y-8290000I0J-250000D01*
G01*
X11010000Y-9490000D01*
G75*
G02*
X10760000Y-9740000I-250000J0D01*
G01*
X9560000Y-9740000D01*
G75*
G02*
X9310000Y-9490000I0J250000D01*
G01*
G37*
G04 #@! TD.AperFunction*
X10160000Y-11430000D03*
X10160000Y-13970000D03*
X10160000Y-16510000D03*
X10160000Y-19050000D03*
X10160000Y-21590000D03*
X10160000Y-24130000D03*
X10160000Y-26670000D03*
X12700000Y-8890000D03*
X12700000Y-11430000D03*
X12700000Y-13970000D03*
X12700000Y-16510000D03*
X12700000Y-19050000D03*
X12700000Y-21590000D03*
X12700000Y-24130000D03*
X12700000Y-26670000D03*
D11*
X17780000Y-13970000D03*
X17780000Y-46990000D03*
X30480000Y-49530000D03*
X30480000Y-16510000D03*
X43180000Y-19050000D03*
X43180000Y-52070000D03*
X55880000Y-21590000D03*
X55880000Y-54610000D03*
X68580000Y-24130000D03*
X68580000Y-57150000D03*
X81280000Y-26670000D03*
X81280000Y-59690000D03*
D12*
X17780000Y-13970000D02*
X17780000Y-46990000D01*
X30480000Y-16510000D02*
X30480000Y-49530000D01*
X43180000Y-19050000D02*
X43180000Y-52070000D01*
X55880000Y-21590000D02*
X55880000Y-54610000D01*
X68580000Y-24130000D02*
X68580000Y-57150000D01*
X81280000Y-26670000D02*
X81280000Y-59690000D01*
M02*
