G04 #@! TF.GenerationSoftware,KiCad,Pcbnew,(5.1.6-0-10_14)*
G04 #@! TF.CreationDate,2021-07-16T23:08:20+02:00*
G04 #@! TF.ProjectId,eurorack-busboard,6575726f-7261-4636-9b2d-627573626f61,rev?*
G04 #@! TF.SameCoordinates,Original*
G04 #@! TF.FileFunction,Soldermask,Bot*
G04 #@! TF.FilePolarity,Negative*
%FSLAX46Y46*%
G04 Gerber Fmt 4.6, Leading zero omitted, Abs format (unit mm)*
G04 Created by KiCad (PCBNEW (5.1.6-0-10_14)) date 2021-07-16 23:08:20*
%MOMM*%
%LPD*%
G01*
G04 APERTURE LIST*
%ADD10C,2.300000*%
%ADD11C,1.800000*%
G04 APERTURE END LIST*
D10*
X95250000Y-2540000D03*
X2540000Y-2540000D03*
X2540000Y-67310000D03*
X95250000Y-67310000D03*
D11*
X88900000Y-26670000D03*
X88900000Y-24130000D03*
X88900000Y-21590000D03*
X88900000Y-19050000D03*
X88900000Y-16510000D03*
X88900000Y-13970000D03*
X88900000Y-11430000D03*
X88900000Y-8890000D03*
X86360000Y-26670000D03*
X86360000Y-24130000D03*
X86360000Y-21590000D03*
X86360000Y-19050000D03*
X86360000Y-16510000D03*
X86360000Y-13970000D03*
X86360000Y-11430000D03*
G36*
G01*
X85460000Y-9525294D02*
X85460000Y-8254706D01*
G75*
G02*
X85724706Y-7990000I264706J0D01*
G01*
X86995294Y-7990000D01*
G75*
G02*
X87260000Y-8254706I0J-264706D01*
G01*
X87260000Y-9525294D01*
G75*
G02*
X86995294Y-9790000I-264706J0D01*
G01*
X85724706Y-9790000D01*
G75*
G02*
X85460000Y-9525294I0J264706D01*
G01*
G37*
G36*
G01*
X85460000Y-42545294D02*
X85460000Y-41274706D01*
G75*
G02*
X85724706Y-41010000I264706J0D01*
G01*
X86995294Y-41010000D01*
G75*
G02*
X87260000Y-41274706I0J-264706D01*
G01*
X87260000Y-42545294D01*
G75*
G02*
X86995294Y-42810000I-264706J0D01*
G01*
X85724706Y-42810000D01*
G75*
G02*
X85460000Y-42545294I0J264706D01*
G01*
G37*
X86360000Y-44450000D03*
X86360000Y-46990000D03*
X86360000Y-49530000D03*
X86360000Y-52070000D03*
X86360000Y-54610000D03*
X86360000Y-57150000D03*
X86360000Y-59690000D03*
X88900000Y-41910000D03*
X88900000Y-44450000D03*
X88900000Y-46990000D03*
X88900000Y-49530000D03*
X88900000Y-52070000D03*
X88900000Y-54610000D03*
X88900000Y-57150000D03*
X88900000Y-59690000D03*
G36*
G01*
X47360000Y-42545294D02*
X47360000Y-41274706D01*
G75*
G02*
X47624706Y-41010000I264706J0D01*
G01*
X48895294Y-41010000D01*
G75*
G02*
X49160000Y-41274706I0J-264706D01*
G01*
X49160000Y-42545294D01*
G75*
G02*
X48895294Y-42810000I-264706J0D01*
G01*
X47624706Y-42810000D01*
G75*
G02*
X47360000Y-42545294I0J264706D01*
G01*
G37*
X48260000Y-44450000D03*
X48260000Y-46990000D03*
X48260000Y-49530000D03*
X48260000Y-52070000D03*
X48260000Y-54610000D03*
X48260000Y-57150000D03*
X48260000Y-59690000D03*
X50800000Y-41910000D03*
X50800000Y-44450000D03*
X50800000Y-46990000D03*
X50800000Y-49530000D03*
X50800000Y-52070000D03*
X50800000Y-54610000D03*
X50800000Y-57150000D03*
X50800000Y-59690000D03*
G36*
G01*
X34660000Y-9525294D02*
X34660000Y-8254706D01*
G75*
G02*
X34924706Y-7990000I264706J0D01*
G01*
X36195294Y-7990000D01*
G75*
G02*
X36460000Y-8254706I0J-264706D01*
G01*
X36460000Y-9525294D01*
G75*
G02*
X36195294Y-9790000I-264706J0D01*
G01*
X34924706Y-9790000D01*
G75*
G02*
X34660000Y-9525294I0J264706D01*
G01*
G37*
X35560000Y-11430000D03*
X35560000Y-13970000D03*
X35560000Y-16510000D03*
X35560000Y-19050000D03*
X35560000Y-21590000D03*
X35560000Y-24130000D03*
X35560000Y-26670000D03*
X38100000Y-8890000D03*
X38100000Y-11430000D03*
X38100000Y-13970000D03*
X38100000Y-16510000D03*
X38100000Y-19050000D03*
X38100000Y-21590000D03*
X38100000Y-24130000D03*
X38100000Y-26670000D03*
X38100000Y-59690000D03*
X38100000Y-57150000D03*
X38100000Y-54610000D03*
X38100000Y-52070000D03*
X38100000Y-49530000D03*
X38100000Y-46990000D03*
X38100000Y-44450000D03*
X38100000Y-41910000D03*
X35560000Y-59690000D03*
X35560000Y-57150000D03*
X35560000Y-54610000D03*
X35560000Y-52070000D03*
X35560000Y-49530000D03*
X35560000Y-46990000D03*
X35560000Y-44450000D03*
G36*
G01*
X34660000Y-42545294D02*
X34660000Y-41274706D01*
G75*
G02*
X34924706Y-41010000I264706J0D01*
G01*
X36195294Y-41010000D01*
G75*
G02*
X36460000Y-41274706I0J-264706D01*
G01*
X36460000Y-42545294D01*
G75*
G02*
X36195294Y-42810000I-264706J0D01*
G01*
X34924706Y-42810000D01*
G75*
G02*
X34660000Y-42545294I0J264706D01*
G01*
G37*
X50800000Y-26670000D03*
X50800000Y-24130000D03*
X50800000Y-21590000D03*
X50800000Y-19050000D03*
X50800000Y-16510000D03*
X50800000Y-13970000D03*
X50800000Y-11430000D03*
X50800000Y-8890000D03*
X48260000Y-26670000D03*
X48260000Y-24130000D03*
X48260000Y-21590000D03*
X48260000Y-19050000D03*
X48260000Y-16510000D03*
X48260000Y-13970000D03*
X48260000Y-11430000D03*
G36*
G01*
X47360000Y-9525294D02*
X47360000Y-8254706D01*
G75*
G02*
X47624706Y-7990000I264706J0D01*
G01*
X48895294Y-7990000D01*
G75*
G02*
X49160000Y-8254706I0J-264706D01*
G01*
X49160000Y-9525294D01*
G75*
G02*
X48895294Y-9790000I-264706J0D01*
G01*
X47624706Y-9790000D01*
G75*
G02*
X47360000Y-9525294I0J264706D01*
G01*
G37*
G36*
G01*
X72760000Y-9525294D02*
X72760000Y-8254706D01*
G75*
G02*
X73024706Y-7990000I264706J0D01*
G01*
X74295294Y-7990000D01*
G75*
G02*
X74560000Y-8254706I0J-264706D01*
G01*
X74560000Y-9525294D01*
G75*
G02*
X74295294Y-9790000I-264706J0D01*
G01*
X73024706Y-9790000D01*
G75*
G02*
X72760000Y-9525294I0J264706D01*
G01*
G37*
X73660000Y-11430000D03*
X73660000Y-13970000D03*
X73660000Y-16510000D03*
X73660000Y-19050000D03*
X73660000Y-21590000D03*
X73660000Y-24130000D03*
X73660000Y-26670000D03*
X76200000Y-8890000D03*
X76200000Y-11430000D03*
X76200000Y-13970000D03*
X76200000Y-16510000D03*
X76200000Y-19050000D03*
X76200000Y-21590000D03*
X76200000Y-24130000D03*
X76200000Y-26670000D03*
G36*
G01*
X60060000Y-42545294D02*
X60060000Y-41274706D01*
G75*
G02*
X60324706Y-41010000I264706J0D01*
G01*
X61595294Y-41010000D01*
G75*
G02*
X61860000Y-41274706I0J-264706D01*
G01*
X61860000Y-42545294D01*
G75*
G02*
X61595294Y-42810000I-264706J0D01*
G01*
X60324706Y-42810000D01*
G75*
G02*
X60060000Y-42545294I0J264706D01*
G01*
G37*
X60960000Y-44450000D03*
X60960000Y-46990000D03*
X60960000Y-49530000D03*
X60960000Y-52070000D03*
X60960000Y-54610000D03*
X60960000Y-57150000D03*
X60960000Y-59690000D03*
X63500000Y-41910000D03*
X63500000Y-44450000D03*
X63500000Y-46990000D03*
X63500000Y-49530000D03*
X63500000Y-52070000D03*
X63500000Y-54610000D03*
X63500000Y-57150000D03*
X63500000Y-59690000D03*
X76200000Y-59690000D03*
X76200000Y-57150000D03*
X76200000Y-54610000D03*
X76200000Y-52070000D03*
X76200000Y-49530000D03*
X76200000Y-46990000D03*
X76200000Y-44450000D03*
X76200000Y-41910000D03*
X73660000Y-59690000D03*
X73660000Y-57150000D03*
X73660000Y-54610000D03*
X73660000Y-52070000D03*
X73660000Y-49530000D03*
X73660000Y-46990000D03*
X73660000Y-44450000D03*
G36*
G01*
X72760000Y-42545294D02*
X72760000Y-41274706D01*
G75*
G02*
X73024706Y-41010000I264706J0D01*
G01*
X74295294Y-41010000D01*
G75*
G02*
X74560000Y-41274706I0J-264706D01*
G01*
X74560000Y-42545294D01*
G75*
G02*
X74295294Y-42810000I-264706J0D01*
G01*
X73024706Y-42810000D01*
G75*
G02*
X72760000Y-42545294I0J264706D01*
G01*
G37*
X63500000Y-26670000D03*
X63500000Y-24130000D03*
X63500000Y-21590000D03*
X63500000Y-19050000D03*
X63500000Y-16510000D03*
X63500000Y-13970000D03*
X63500000Y-11430000D03*
X63500000Y-8890000D03*
X60960000Y-26670000D03*
X60960000Y-24130000D03*
X60960000Y-21590000D03*
X60960000Y-19050000D03*
X60960000Y-16510000D03*
X60960000Y-13970000D03*
X60960000Y-11430000D03*
G36*
G01*
X60060000Y-9525294D02*
X60060000Y-8254706D01*
G75*
G02*
X60324706Y-7990000I264706J0D01*
G01*
X61595294Y-7990000D01*
G75*
G02*
X61860000Y-8254706I0J-264706D01*
G01*
X61860000Y-9525294D01*
G75*
G02*
X61595294Y-9790000I-264706J0D01*
G01*
X60324706Y-9790000D01*
G75*
G02*
X60060000Y-9525294I0J264706D01*
G01*
G37*
X25400000Y-26670000D03*
X25400000Y-24130000D03*
X25400000Y-21590000D03*
X25400000Y-19050000D03*
X25400000Y-16510000D03*
X25400000Y-13970000D03*
X25400000Y-11430000D03*
X25400000Y-8890000D03*
X22860000Y-26670000D03*
X22860000Y-24130000D03*
X22860000Y-21590000D03*
X22860000Y-19050000D03*
X22860000Y-16510000D03*
X22860000Y-13970000D03*
X22860000Y-11430000D03*
G36*
G01*
X21960000Y-9525294D02*
X21960000Y-8254706D01*
G75*
G02*
X22224706Y-7990000I264706J0D01*
G01*
X23495294Y-7990000D01*
G75*
G02*
X23760000Y-8254706I0J-264706D01*
G01*
X23760000Y-9525294D01*
G75*
G02*
X23495294Y-9790000I-264706J0D01*
G01*
X22224706Y-9790000D01*
G75*
G02*
X21960000Y-9525294I0J264706D01*
G01*
G37*
G36*
G01*
X21960000Y-42545294D02*
X21960000Y-41274706D01*
G75*
G02*
X22224706Y-41010000I264706J0D01*
G01*
X23495294Y-41010000D01*
G75*
G02*
X23760000Y-41274706I0J-264706D01*
G01*
X23760000Y-42545294D01*
G75*
G02*
X23495294Y-42810000I-264706J0D01*
G01*
X22224706Y-42810000D01*
G75*
G02*
X21960000Y-42545294I0J264706D01*
G01*
G37*
X22860000Y-44450000D03*
X22860000Y-46990000D03*
X22860000Y-49530000D03*
X22860000Y-52070000D03*
X22860000Y-54610000D03*
X22860000Y-57150000D03*
X22860000Y-59690000D03*
X25400000Y-41910000D03*
X25400000Y-44450000D03*
X25400000Y-46990000D03*
X25400000Y-49530000D03*
X25400000Y-52070000D03*
X25400000Y-54610000D03*
X25400000Y-57150000D03*
X25400000Y-59690000D03*
X12700000Y-59690000D03*
X12700000Y-57150000D03*
X12700000Y-54610000D03*
X12700000Y-52070000D03*
X12700000Y-49530000D03*
X12700000Y-46990000D03*
X12700000Y-44450000D03*
X12700000Y-41910000D03*
X10160000Y-59690000D03*
X10160000Y-57150000D03*
X10160000Y-54610000D03*
X10160000Y-52070000D03*
X10160000Y-49530000D03*
X10160000Y-46990000D03*
X10160000Y-44450000D03*
G36*
G01*
X9260000Y-42545294D02*
X9260000Y-41274706D01*
G75*
G02*
X9524706Y-41010000I264706J0D01*
G01*
X10795294Y-41010000D01*
G75*
G02*
X11060000Y-41274706I0J-264706D01*
G01*
X11060000Y-42545294D01*
G75*
G02*
X10795294Y-42810000I-264706J0D01*
G01*
X9524706Y-42810000D01*
G75*
G02*
X9260000Y-42545294I0J264706D01*
G01*
G37*
G36*
G01*
X9260000Y-9525294D02*
X9260000Y-8254706D01*
G75*
G02*
X9524706Y-7990000I264706J0D01*
G01*
X10795294Y-7990000D01*
G75*
G02*
X11060000Y-8254706I0J-264706D01*
G01*
X11060000Y-9525294D01*
G75*
G02*
X10795294Y-9790000I-264706J0D01*
G01*
X9524706Y-9790000D01*
G75*
G02*
X9260000Y-9525294I0J264706D01*
G01*
G37*
X10160000Y-11430000D03*
X10160000Y-13970000D03*
X10160000Y-16510000D03*
X10160000Y-19050000D03*
X10160000Y-21590000D03*
X10160000Y-24130000D03*
X10160000Y-26670000D03*
X12700000Y-8890000D03*
X12700000Y-11430000D03*
X12700000Y-13970000D03*
X12700000Y-16510000D03*
X12700000Y-19050000D03*
X12700000Y-21590000D03*
X12700000Y-24130000D03*
X12700000Y-26670000D03*
M02*
